<svg width="16" height="16" viewBox="0 0 16 16" fill="none" xmlns="http://www.w3.org/2000/svg">
<rect x="0.431641" y="0.716797" width="15" height="15" rx="3" fill="#DADCDC"/>
<path d="M7.79729 5.54025C7.54129 5.54025 7.31729 5.44825 7.12529 5.26425C6.94129 5.07225 6.84929 4.84825 6.84929 4.59225C6.84929 4.33625 6.94129 4.11225 7.12529 3.92025C7.31729 3.72825 7.54129 3.63225 7.79729 3.63225C8.06129 3.63225 8.28529 3.72825 8.46929 3.92025C8.66129 4.11225 8.75729 4.33625 8.75729 4.59225C8.75729 4.84825 8.66129 5.07225 8.46929 5.26425C8.28529 5.44825 8.06129 5.54025 7.79729 5.54025ZM7.02929 12.2603V6.26025H8.57729V12.2603H7.02929Z" fill="#00C65E"/>
</svg>
