<svg width="19" height="19" viewBox="0 0 19 19" fill="none" xmlns="http://www.w3.org/2000/svg">
<path d="M11.4279 5.66926C11.4279 6.20265 11.24 6.65724 10.8642 7.03303C10.4884 7.40883 10.0338 7.59672 9.50043 7.59672C8.96704 7.59672 8.51245 7.40883 8.13666 7.03303C7.76087 6.65724 7.57297 6.20265 7.57297 5.66926C7.57297 5.13588 7.76087 4.68129 8.13666 4.30549C8.51245 3.9297 8.96704 3.7418 9.50043 3.7418C10.0338 3.7418 10.4884 3.9297 10.8642 4.30549C11.24 4.68129 11.4279 5.13588 11.4279 5.66926ZM14.0221 10.0697C13.9413 9.90806 13.8281 9.77876 13.6827 9.68178C13.5372 9.5848 13.3452 9.54641 13.1068 9.56661C12.8684 9.58682 12.624 9.69794 12.3734 9.89998C12.2926 9.96463 12.1754 10.0454 12.0219 10.1424C11.8683 10.2394 11.541 10.3687 11.04 10.5303C10.5389 10.692 10.0257 10.7728 9.50043 10.7728C8.97513 10.7728 8.47407 10.7001 7.99725 10.5546C7.52044 10.4091 7.17293 10.2637 6.95473 10.1182L6.62742 9.89998C6.37689 9.69794 6.13242 9.58682 5.89402 9.56661C5.65561 9.54641 5.46367 9.5848 5.3182 9.68178C5.17273 9.77876 5.05959 9.90806 4.97878 10.0697C4.80098 10.4334 4.7929 10.7344 4.95453 10.9728C5.11616 11.2112 5.46771 11.5082 6.00918 11.8638C6.67995 12.2921 7.59317 12.5629 8.74884 12.676L8.1306 13.3064C6.98301 14.454 6.21122 15.2217 5.81522 15.6096C5.63743 15.7874 5.54853 15.9996 5.54853 16.2461C5.54853 16.4925 5.63743 16.7047 5.81522 16.8825L5.92432 16.9916C6.10212 17.1694 6.31426 17.2583 6.56075 17.2583C6.80724 17.2583 7.01938 17.1694 7.19717 16.9916L9.51255 14.6762C10.4339 15.6056 11.2056 16.3774 11.8279 16.9916C12.0057 17.1694 12.2179 17.2583 12.4644 17.2583C12.7108 17.2583 12.923 17.1694 13.1008 16.9916L13.2099 16.8825C13.3877 16.7047 13.4766 16.4925 13.4766 16.2461C13.4766 15.9996 13.3877 15.7874 13.2099 15.6096L10.8945 13.3064L10.2641 12.676C11.4036 12.5629 12.3128 12.2921 12.9917 11.8638C13.5331 11.5082 13.8847 11.2112 14.0463 10.9728C14.208 10.7344 14.1999 10.4334 14.0221 10.0697ZM13.4281 5.66926C13.4281 4.58633 13.0442 3.66099 12.2765 2.89324C11.5087 2.12548 10.5834 1.74161 9.50043 1.74161C8.4175 1.74161 7.49215 2.12548 6.7244 2.89324C5.95665 3.66099 5.57277 4.58633 5.57277 5.66926C5.57277 6.7522 5.95665 7.67754 6.7244 8.44529C7.49215 9.21305 8.4175 9.59692 9.50043 9.59692C10.5834 9.59692 11.5087 9.21305 12.2765 8.44529C13.0442 7.67754 13.4281 6.7522 13.4281 5.66926ZM18.8104 3.68119V15.3187C18.8104 16.2804 18.469 17.1027 17.7861 17.7856C17.1032 18.4685 16.2809 18.8099 15.3192 18.8099H3.68168C2.71997 18.8099 1.89767 18.4685 1.21477 17.7856C0.531877 17.1027 0.19043 16.2804 0.19043 15.3187V3.68119C0.19043 2.71948 0.531877 1.89718 1.21477 1.21428C1.89767 0.531389 2.71997 0.189941 3.68168 0.189941H15.3192C16.2809 0.189941 17.1032 0.531389 17.7861 1.21428C18.469 1.89718 18.8104 2.71948 18.8104 3.68119Z" fill="white"/>
</svg>
