<svg width="19" height="19" viewBox="0 0 19 19" fill="none" xmlns="http://www.w3.org/2000/svg">
<path d="M14.1395 0.191406H4.8457C2.28953 0.191406 0.191406 2.28953 0.191406 4.86048V14.1543C0.191406 16.7105 2.28953 18.8086 4.8457 18.8086H14.1395C16.7105 18.8086 18.8086 16.7105 18.8086 14.1395V4.86048C18.8086 2.28953 16.7105 0.191406 14.1395 0.191406ZM11.9971 9.49999H10.2388V15.2625H8.02244V9.49999H6.8404V7.13591H7.87468V6.13117C7.87468 5.18554 8.3475 3.69321 10.3422 3.69321H12.1596V5.65835H10.8741C10.6673 5.65835 10.3865 5.79133 10.3865 6.24938V7.13591H12.2039L11.9971 9.49999Z" fill="white"/>
</svg>
