<svg width="19" height="19" viewBox="0 0 19 19" fill="none" xmlns="http://www.w3.org/2000/svg">
<path fill-rule="evenodd" clip-rule="evenodd" d="M4.84619 0.191162C2.27569 0.191162 0.191895 2.27496 0.191895 4.84546V14.154C0.191895 16.7245 2.27569 18.8083 4.84619 18.8083H14.1548C16.7253 18.8083 18.8091 16.7245 18.8091 14.154V4.84546C18.8091 2.27496 16.7253 0.191162 14.1548 0.191162H4.84619ZM15.0095 5.8151C15.4201 5.8151 15.5064 6.02648 15.4201 6.31408V6.31418C15.2475 7.10521 13.5936 9.43507 13.5936 9.43507C13.4497 9.66507 13.3922 9.78007 13.5936 10.039C13.6645 10.1382 13.8157 10.2864 13.9888 10.4559C14.1668 10.6303 14.3679 10.8273 14.5284 11.017C15.1115 11.673 15.551 12.2263 15.6733 12.6078C15.7852 12.9905 15.5913 13.1844 15.2034 13.1844H13.8459C13.4824 13.1844 13.2993 12.9807 12.9039 12.5408C12.7362 12.3543 12.5302 12.1251 12.2561 11.851C11.4506 11.0745 11.1055 10.9738 10.904 10.9738C10.6309 10.9738 10.5491 11.0512 10.5491 11.439V12.6564C10.5491 12.9905 10.4425 13.1844 9.5795 13.1844C8.14132 13.1844 6.56099 12.3111 5.43912 10.7006C3.75649 8.342 3.2962 6.55862 3.2962 6.19908C3.2962 5.99768 3.37377 5.8151 3.76163 5.8151H5.11913C5.46607 5.8151 5.59658 5.96695 5.72671 6.34288C6.39072 8.27683 7.51008 9.96712 7.97028 9.96712C8.14287 9.96712 8.222 9.88761 8.222 9.44933V7.45021C8.19082 6.88123 7.99208 6.63516 7.84487 6.45289C7.75395 6.34032 7.68268 6.25208 7.68268 6.12713C7.68268 5.97529 7.81242 5.8151 8.02807 5.8151H10.1613C10.449 5.8151 10.5491 5.96889 10.5491 6.31408V9.00349C10.5491 9.29108 10.674 9.39163 10.7603 9.39163C10.9329 9.39163 11.0767 9.29108 11.3931 8.97469C12.3711 7.8817 13.0615 6.19908 13.0615 6.19908C13.1478 5.99768 13.3068 5.8151 13.652 5.8151H15.0095Z" fill="white"/>
</svg>
