<svg width="23" height="16" viewBox="0 0 23 16" fill="none" xmlns="http://www.w3.org/2000/svg">
<path d="M11.4316 5.21948C12.2273 5.21948 12.9904 5.53555 13.553 6.09816C14.1156 6.66077 14.4316 7.42383 14.4316 8.21948C14.4316 9.01513 14.1156 9.77819 13.553 10.3408C12.9904 10.9034 12.2273 11.2195 11.4316 11.2195C10.636 11.2195 9.87293 10.9034 9.31032 10.3408C8.74771 9.77819 8.43164 9.01513 8.43164 8.21948C8.43164 7.42383 8.74771 6.66077 9.31032 6.09816C9.87293 5.53555 10.636 5.21948 11.4316 5.21948ZM11.4316 0.719482C16.2916 0.719482 20.6516 3.71948 22.4316 8.21948C20.0416 14.2995 13.1816 17.2795 7.10164 14.8895C4.05164 13.6895 1.63164 11.2795 0.431641 8.21948C2.21164 3.71948 6.57164 0.719482 11.4316 0.719482ZM2.61164 8.21948C4.99164 13.0895 10.8816 15.1095 15.7516 12.7195C17.71 11.7612 19.2933 10.1778 20.2516 8.21948C17.8716 3.34948 11.9816 1.32948 7.11164 3.71948C5.1533 4.67781 3.56997 6.26114 2.61164 8.21948Z" fill="#DADCDC"/>
</svg>
