<svg width="41" height="41" viewBox="0 0 41 41" fill="none" xmlns="http://www.w3.org/2000/svg">
<path fill-rule="evenodd" clip-rule="evenodd" d="M14.1897 0.841492C11.9333 0.841492 9.7694 1.73783 8.17391 3.33332L0.475098 11.0321V14.5561C0.475098 17.0458 1.54454 19.2857 3.24911 20.8415C1.54454 22.3973 0.475098 24.6372 0.475098 27.1269V30.6509L8.17391 38.3497C9.7694 39.9452 11.9333 40.8415 14.1897 40.8415C16.6794 40.8415 18.9193 39.7721 20.4751 38.0675C22.0309 39.7721 24.2708 40.8415 26.7605 40.8415C29.0169 40.8415 31.1808 39.9452 32.7763 38.3497L40.4751 30.6509V27.1269C40.4751 24.6372 39.4057 22.3973 37.7011 20.8415C39.4057 19.2857 40.4751 17.0458 40.4751 14.5561V11.0321L32.7763 3.33332C31.1808 1.73783 29.0169 0.841492 26.7605 0.841492C24.2708 0.841492 22.0309 1.91093 20.4751 3.6155C18.9193 1.91093 16.6794 0.841492 14.1897 0.841492ZM26.2339 20.8415C26.138 20.754 26.0439 20.6641 25.9517 20.5719L20.4751 15.0953L14.9985 20.5719C14.9063 20.6641 14.8122 20.754 14.7163 20.8415C14.8122 20.929 14.9063 21.0189 14.9985 21.1111L20.4751 26.5877L25.9517 21.1111C26.0439 21.0189 26.138 20.929 26.2339 20.8415ZM22.6973 30.6509V32.3339C22.6973 34.5779 24.5165 36.3971 26.7605 36.3971C27.8381 36.3971 28.8716 35.969 29.6336 35.207L36.0307 28.8099V27.1269C36.0307 24.8829 34.2115 23.0637 31.9675 23.0637C30.8899 23.0637 29.8564 23.4918 29.0944 24.2538L22.6973 30.6509ZM18.2529 30.6509L11.8558 24.2538C11.0938 23.4918 10.0603 23.0637 8.98272 23.0637C6.73869 23.0637 4.91954 24.8829 4.91954 27.1269V28.8099L11.3166 35.207C12.0786 35.969 13.1121 36.3971 14.1897 36.3971C16.4337 36.3971 18.2529 34.5779 18.2529 32.3339V30.6509ZM18.2529 9.34911V11.0321L11.8558 17.4292C11.0938 18.1912 10.0603 18.6193 8.98272 18.6193C6.73869 18.6193 4.91954 16.8001 4.91954 14.5561V12.8731L11.3166 6.47601C12.0786 5.71402 13.1121 5.28594 14.1897 5.28594C16.4337 5.28594 18.2529 7.10508 18.2529 9.34911ZM29.0944 17.4292L22.6973 11.0321V9.34911C22.6973 7.10508 24.5165 5.28594 26.7605 5.28594C27.8381 5.28594 28.8716 5.71402 29.6336 6.47601L36.0307 12.8731V14.5561C36.0307 16.8001 34.2115 18.6193 31.9675 18.6193C30.8899 18.6193 29.8564 18.1912 29.0944 17.4292Z" fill="#FF630B"/>
</svg>
