<svg width="30" height="31" viewBox="0 0 30 31" fill="none" xmlns="http://www.w3.org/2000/svg">
<path d="M9 5.00244V7.00244H28V10.9615L25.7812 18.0024H8.37075L5.87075 0H0V2H4.12925L6.62925 20.0024H27.248L30 11.2691V5.00244H9Z" fill="black"/>
<path d="M10.0615 22.0215C9.001 22.0227 7.98428 22.4445 7.2344 23.1944C6.48452 23.9443 6.0627 24.961 6.06149 26.0215C6.06149 27.0824 6.48292 28.0998 7.23307 28.8499C7.98321 29.6001 9.00063 30.0215 10.0615 30.0215C11.1224 30.0215 12.1398 29.6001 12.8899 28.8499C13.6401 28.0998 14.0615 27.0824 14.0615 26.0215C14.0603 24.961 13.6385 23.9443 12.8886 23.1944C12.1387 22.4445 11.122 22.0227 10.0615 22.0215ZM10.0615 28.0215C9.66593 28.0215 9.27925 27.9042 8.95035 27.6844C8.62145 27.4647 8.36511 27.1523 8.21373 26.7869C8.06236 26.4214 8.02275 26.0193 8.09992 25.6313C8.17709 25.2434 8.36757 24.887 8.64728 24.6073C8.92698 24.3276 9.28335 24.1371 9.67131 24.0599C10.0593 23.9828 10.4614 24.0224 10.8269 24.1737C11.1923 24.3251 11.5047 24.5815 11.7244 24.9104C11.9442 25.2393 12.0615 25.6259 12.0615 26.0215C12.0609 26.5517 11.8499 27.0601 11.475 27.435C11.1001 27.81 10.5917 28.0209 10.0615 28.0215Z" fill="black"/>
<path d="M24.0615 22.0215C23.001 22.0227 21.9843 22.4445 21.2344 23.1944C20.4845 23.9443 20.0627 24.961 20.0615 26.0215C20.0615 27.0824 20.4829 28.0998 21.2331 28.8499C21.9832 29.6001 23.0007 30.0215 24.0615 30.0215C25.1224 30.0215 26.1398 29.6001 26.8899 28.8499C27.6401 28.0998 28.0615 27.0824 28.0615 26.0215C28.0603 24.961 27.6385 23.9443 26.8886 23.1944C26.1387 22.4445 25.122 22.0227 24.0615 22.0215ZM24.0615 28.0215C23.666 28.0215 23.2793 27.9042 22.9504 27.6844C22.6215 27.4647 22.3651 27.1523 22.2138 26.7869C22.0624 26.4214 22.0228 26.0193 22.1 25.6313C22.1771 25.2434 22.3676 24.887 22.6473 24.6073C22.927 24.3276 23.2834 24.1371 23.6713 24.0599C24.0593 23.9828 24.4614 24.0224 24.8269 24.1737C25.1923 24.3251 25.5047 24.5815 25.7245 24.9104C25.9442 25.2393 26.0615 25.6259 26.0615 26.0215C26.0609 26.5517 25.85 27.0601 25.475 27.435C25.1001 27.81 24.5918 28.0209 24.0615 28.0215Z" fill="black"/>
</svg>
