<svg width="20" height="20" viewBox="0 0 20 20" fill="none" xmlns="http://www.w3.org/2000/svg">
<path d="M16.7695 2.65624C16.5528 2.66581 16.3509 2.72893 16.1732 2.80078C16.0067 2.86775 15.3705 3.1406 14.3685 3.57031C13.3656 4.00039 12.0377 4.57051 10.6211 5.17968C7.78798 6.39802 4.60281 7.76944 2.97135 8.47135C2.91001 8.49773 2.69595 8.56612 2.46875 8.74348C2.24155 8.92085 2 9.28839 2 9.69791C2 10.0281 2.15738 10.3562 2.35547 10.5521C2.55356 10.7479 2.76316 10.8447 2.94271 10.918C3.59415 11.1838 5.61456 12.0106 5.99609 12.1667C6.13036 12.578 6.86166 14.815 7.03125 15.3633C7.14305 15.7251 7.24947 15.9517 7.38802 16.1315C7.4573 16.2214 7.53783 16.3002 7.63542 16.362C7.67442 16.3867 7.71719 16.4057 7.76042 16.4232L7.76302 16.4245C7.77298 16.4285 7.78157 16.4353 7.79167 16.4388C7.81072 16.4455 7.82347 16.4463 7.84896 16.4518C7.95051 16.4846 8.05303 16.5052 8.14453 16.5052C8.53464 16.5052 8.77344 16.2904 8.77344 16.2904L8.78776 16.2799L10.7943 14.5443L13.2279 16.8463C13.2621 16.8948 13.5817 17.3333 14.2865 17.3333C14.7049 17.3333 15.0369 17.1233 15.25 16.8997C15.4631 16.6761 15.5959 16.4412 15.6523 16.1458V16.1445C15.7051 15.8654 17.9479 4.35156 17.9479 4.35156L17.944 4.36718C18.0097 4.06751 18.0269 3.78842 17.9544 3.51302C17.882 3.23761 17.6911 2.97392 17.4544 2.83203C17.2178 2.69016 16.9862 2.64668 16.7695 2.65624ZM16.6445 4.04947C16.6413 4.06893 16.6469 4.05915 16.6419 4.08203L16.6406 4.08984L16.6393 4.09765C16.6393 4.09765 14.4243 15.4642 14.3424 15.8971C14.3484 15.8644 14.321 15.9294 14.293 15.9687C14.2533 15.9414 14.1719 15.9062 14.1719 15.9062L14.1589 15.8919L10.8346 12.7474L8.48437 14.7786L9.18359 11.9792C9.18359 11.9792 13.5544 7.45473 13.8177 7.1914C14.0297 6.98073 14.0742 6.9073 14.0742 6.83463C14.0742 6.7373 14.0235 6.66666 13.9102 6.66666C13.8082 6.66666 13.671 6.76583 13.5977 6.81249C12.6423 7.42152 8.44788 9.86609 6.56771 10.9596C6.26892 10.8374 4.19311 9.98764 3.48958 9.70052C3.49491 9.69818 3.49316 9.69901 3.4987 9.69661C5.13058 8.99452 8.31442 7.62311 11.1471 6.40494C12.5635 5.79586 13.8924 5.2253 14.8945 4.79557C15.8812 4.37245 16.5667 4.08125 16.6445 4.04947Z" fill="black"/>
</svg>
