<svg width="20" height="20" viewBox="0 0 20 20" fill="none" xmlns="http://www.w3.org/2000/svg">
<path d="M16 2.66667H4.00002C3.26335 2.66667 2.66669 3.26334 2.66669 4.00001V16C2.66669 16.7367 3.26335 17.3333 4.00002 17.3333H16C16.7367 17.3333 17.3334 16.7367 17.3334 16V4.00001C17.3334 3.26334 16.7367 2.66667 16 2.66667ZM14.2407 12.6447L12.9954 12.662C12.9954 12.662 12.7267 12.7147 12.3754 12.472C11.9094 12.152 11.47 11.3193 11.1274 11.4273C10.78 11.538 10.7907 12.2873 10.7907 12.2873C10.7907 12.2873 10.7934 12.4193 10.714 12.5053C10.628 12.598 10.4594 12.5887 10.4594 12.5887H9.90135C9.90135 12.5887 8.67069 12.6907 7.58602 11.56C6.40469 10.3273 5.36069 7.89467 5.36069 7.89467C5.36069 7.89467 5.29935 7.74134 5.36469 7.66267C5.43869 7.57601 5.63802 7.57334 5.63802 7.57334L6.97135 7.56667C6.97135 7.56667 7.09669 7.58867 7.18735 7.65534C7.26135 7.71 7.30335 7.81267 7.30335 7.81267C7.30335 7.81267 7.51869 8.35867 7.80469 8.85334C8.36202 9.81734 8.62069 10.0287 8.81002 9.92534C9.08602 9.77467 9.00335 8.56267 9.00335 8.56267C9.00335 8.56267 9.00869 8.12267 8.86469 7.92667C8.75269 7.77401 8.54202 7.72867 8.45002 7.71734C8.37469 7.70734 8.49735 7.53267 8.65735 7.454C8.89735 7.33667 9.32135 7.33 9.82202 7.33467C10.212 7.33867 10.3247 7.36267 10.4767 7.40001C10.9367 7.51134 10.7807 7.94067 10.7807 8.97067C10.7807 9.30067 10.7214 9.76467 10.9587 9.91734C11.0614 9.98334 11.3114 9.92734 11.9347 8.86467C12.2314 8.36067 12.4534 7.76867 12.4534 7.76867C12.4534 7.76867 12.502 7.66334 12.5774 7.618C12.6547 7.57134 12.7587 7.586 12.7587 7.586L14.162 7.57734C14.162 7.57734 14.5834 7.52667 14.652 7.718C14.724 7.918 14.4947 8.38534 13.9214 9.15C12.98 10.406 12.8754 10.2893 13.6574 11.016C14.404 11.71 14.558 12.0473 14.584 12.09C14.8927 12.604 14.2407 12.6447 14.2407 12.6447Z" fill="black"/>
</svg>
